<svg width="30" height="30" viewBox="0 0 30 30" fill="none" xmlns="http://www.w3.org/2000/svg">
<path d="M15 22.4286C17.3593 22.4286 19 24.0391 19 25.7147C18.9997 27.3902 17.3591 28.9999 15 28.9999C12.6409 28.9999 11.0003 27.3902 11 25.7147C11 24.0391 12.6407 22.4286 15 22.4286Z" stroke="black" stroke-width="2"/>
<path d="M15.0156 1C18.317 1.00013 20.8332 2.58273 22.5889 5.05957C24.364 7.56389 25.3494 10.9792 25.4648 14.5039C25.5604 17.4194 26.3836 20.4273 28.25 23.9336C28.2535 23.9402 28.2551 23.9453 28.2559 23.9482C28.2566 23.9514 28.2569 23.9551 28.2568 23.959C28.2565 23.9678 28.2542 23.9795 28.248 23.9902C28.2452 23.9952 28.242 23.9981 28.2402 24H1.76465C1.76287 23.9981 1.7605 23.9949 1.75781 23.9902C1.75154 23.9793 1.74834 23.967 1.74805 23.958C1.74795 23.9541 1.74831 23.9504 1.74902 23.9473C1.74975 23.9442 1.75128 23.9394 1.75488 23.9326C3.61943 20.4456 4.44485 17.4408 4.5459 14.5322C4.66854 11.0023 5.65602 7.57968 7.43359 5.06934C9.19183 2.58633 11.7104 1 15.0156 1Z" fill="white" stroke="black" stroke-width="2"/>
</svg>
